<svg width="591" height="412" viewBox="0 0 591 412" fill="none" xmlns="http://www.w3.org/2000/svg">
<path d="M498.569 68.8186C499.18 72.9487 498.552 77.1672 496.764 80.9399C494.976 84.7127 492.109 87.8701 488.525 90.0123C484.942 92.1545 480.803 93.1852 476.634 92.9739C472.464 92.7626 468.451 91.3187 465.102 88.8251C461.754 86.3316 459.22 82.9005 457.823 78.9663C456.426 75.0321 456.227 70.7717 457.253 66.7246C458.278 62.6775 460.481 59.0257 463.584 56.2316C466.686 53.4374 470.547 51.6267 474.679 51.0285C480.205 50.2286 485.822 51.652 490.301 54.9867C494.779 58.3214 497.752 63.2954 498.569 68.8186Z" fill="#F5F5F5"/>
<path d="M493.612 69.5394C494.078 72.6862 493.6 75.9005 492.238 78.7755C490.876 81.6505 488.692 84.0568 485.962 85.6899C483.232 87.3231 480.079 88.1096 476.902 87.9499C473.725 87.7902 470.667 86.6915 468.114 84.7929C465.562 82.8943 463.63 80.2811 462.564 77.2841C461.497 74.2871 461.344 71.041 462.123 67.9568C462.902 64.8725 464.578 62.0887 466.94 59.9578C469.302 57.8268 472.243 56.4445 475.391 55.9858C479.605 55.3672 483.891 56.4475 487.308 58.9893C490.725 61.531 492.993 65.326 493.612 69.5394Z" fill="#EBEBEB"/>
<path d="M493.533 69.0384C493.236 68.4487 493.001 67.8302 492.83 67.1926C491.826 64.3787 490.076 61.8905 487.767 59.9939C486.694 59.1238 485.512 58.3969 484.251 57.8317C483.575 57.5173 482.876 57.2558 482.159 57.0494C481.413 56.8326 480.652 56.671 479.883 56.566C479.087 56.4612 478.285 56.4142 477.483 56.4253C476.655 56.4511 475.83 56.5333 475.013 56.6714C474.199 56.8192 473.397 57.0278 472.614 57.2955C471.85 57.5534 471.109 57.8738 470.399 58.2536C469.711 58.6149 469.053 59.0292 468.43 59.4929C467.828 59.9284 467.26 60.4103 466.733 60.9344C465.747 61.9036 464.89 62.9968 464.184 64.1865C463.571 65.2278 463.073 66.3331 462.699 67.4826C462.168 69.163 461.898 70.915 461.899 72.6773C461.969 73.3347 461.969 73.9975 461.899 74.6549C461.608 74.045 461.452 73.3794 461.442 72.7036C461.25 70.8698 461.399 69.0162 461.882 67.2365C462.61 64.5625 464.007 62.1183 465.942 60.1345C466.488 59.564 467.076 59.0352 467.7 58.5524C469.057 57.5145 470.57 56.6986 472.183 56.1353C473.028 55.85 473.891 55.6239 474.767 55.4585C475.639 55.3105 476.52 55.2253 477.404 55.2036C478.272 55.1906 479.139 55.2494 479.997 55.3794C480.829 55.4943 481.649 55.6795 482.449 55.9331C483.216 56.1664 483.962 56.4603 484.682 56.8121C486.017 57.4462 487.259 58.2594 488.373 59.2292C489.355 60.0698 490.234 61.0227 490.993 62.0682C492.062 63.573 492.842 65.2627 493.296 67.0519C493.515 67.6898 493.596 68.3669 493.533 69.0384Z" fill="#E0E0E0"/>
<path d="M480.885 81.0713L481.324 83.84L478.854 84.2356L478.424 81.546C476.217 81.8156 473.979 81.4624 471.963 80.5264L472.842 77.3006C474.416 78.0614 476.161 78.4006 477.905 78.285L477.246 74.1627C474.398 73.9342 471.199 73.5123 470.627 69.9789C470.214 67.342 471.752 64.8194 475.576 63.7471L475.145 61.0047L477.606 60.6092L478.037 63.3076C479.826 63.117 481.634 63.3581 483.311 64.0107L482.563 67.2365C481.293 66.7537 479.94 66.5238 478.582 66.5597L479.25 70.7611C482.098 70.9633 485.253 71.394 485.807 74.8747C486.202 77.4676 484.682 79.9902 480.885 81.0713ZM476.666 70.5238L476.103 67.008C474.846 67.509 474.442 68.3088 474.574 69.1263C474.706 69.9437 475.523 70.392 476.666 70.559V70.5238ZM481.86 75.7976C481.728 74.9186 480.937 74.5758 479.812 74.3737L480.357 77.784C481.544 77.3445 481.992 76.6238 481.86 75.8327V75.7976Z" fill="#E0E0E0"/>
<path d="M432.858 72.5542C433.917 79.7207 432.826 87.0402 429.723 93.5863C426.62 100.132 421.644 105.61 415.426 109.327C409.208 113.044 402.027 114.833 394.792 114.467C387.557 114.1 380.593 111.596 374.782 107.27C368.971 102.944 364.575 96.9914 362.148 90.1655C359.722 83.3396 359.376 75.9473 361.153 68.9243C362.93 61.9014 366.751 55.5636 372.131 50.7131C377.512 45.8627 384.211 42.7178 391.38 41.6764C400.975 40.2709 410.736 42.7344 418.514 48.5251C426.293 54.3158 431.452 62.9593 432.858 72.5542Z" fill="#F5F5F5"/>
<path d="M424.236 73.8023C425.042 79.2622 424.21 84.8385 421.846 89.8256C419.482 94.8128 415.692 98.9867 410.956 101.819C406.219 104.652 400.748 106.016 395.236 105.739C389.724 105.462 384.418 103.556 379.989 100.263C375.561 96.9699 372.208 92.437 370.356 87.238C368.504 82.039 368.236 76.4074 369.585 71.0558C370.934 65.7043 373.841 60.8731 377.936 57.1736C382.032 53.4741 387.132 51.0725 392.593 50.2726C396.216 49.7372 399.909 49.9214 403.461 50.8145C407.013 51.7076 410.354 53.2921 413.293 55.4775C416.231 57.6629 418.711 60.4062 420.588 63.5505C422.466 66.6949 423.706 70.1786 424.236 73.8023Z" fill="#EBEBEB"/>
<path d="M424.104 72.941C423.937 72.941 423.647 71.7807 422.891 69.724C421.846 66.8475 420.364 64.1495 418.496 61.7254C417.199 60.075 415.726 58.5718 414.101 57.2428C412.239 55.7322 410.192 54.4651 408.01 53.472C406.832 52.9347 405.616 52.4853 404.371 52.1272C403.081 51.7321 401.761 51.4382 400.425 51.2483C399.041 51.0597 397.646 50.9774 396.25 51.0021C393.369 51.0484 390.514 51.5558 387.794 52.5052C386.479 52.9713 385.204 53.5415 383.979 54.2103C382.787 54.8381 381.644 55.5551 380.56 56.355C379.518 57.1227 378.531 57.9627 377.607 58.8688C375.906 60.5538 374.429 62.4503 373.212 64.5117C372.149 66.3203 371.286 68.2389 370.637 70.2338C369.714 73.1538 369.246 76.1983 369.248 79.2607C369.248 81.4405 369.389 82.6622 369.248 82.6886C369.107 82.715 368.712 81.5372 368.448 79.3046C368.111 76.1174 368.371 72.8954 369.213 69.8031C370.462 65.1659 372.884 60.9282 376.245 57.4977C377.208 56.4945 378.252 55.5715 379.365 54.7377C380.502 53.868 381.704 53.0864 382.96 52.3997C384.284 51.677 385.666 51.0655 387.091 50.5715C388.556 50.0648 390.058 49.6682 391.582 49.3849C393.11 49.1247 394.656 48.9807 396.206 48.9542C397.711 48.9303 399.216 49.0273 400.706 49.2442C402.144 49.4514 403.564 49.7717 404.951 50.2023C406.279 50.6092 407.575 51.1146 408.827 51.7141C411.146 52.8194 413.304 54.2327 415.244 55.9155C416.916 57.381 418.409 59.0391 419.691 60.8553C421.551 63.4645 422.907 66.3976 423.691 69.5042C424.218 71.6753 424.227 72.9234 424.104 72.941Z" fill="#E0E0E0"/>
<path d="M402.147 93.8338L402.912 98.6329L398.632 99.3097L397.884 94.6425C393.604 95.0644 389.315 94.3876 386.669 92.8845L388.181 87.2768C390.91 88.6124 393.938 89.2181 396.97 89.0347L395.819 81.88C390.879 81.4844 385.315 80.7461 384.331 74.6198C383.61 70.0756 386.282 65.6544 392.927 63.7998L392.162 59.0446L396.452 58.359L397.199 63.0263C400.291 62.7063 403.415 63.1251 406.314 64.2481L405.074 69.8646C402.873 69.0153 400.525 68.6119 398.166 68.678L399.326 75.9646C404.266 76.3162 409.742 77.0633 410.709 83.1017C411.377 87.558 408.74 91.9528 402.147 93.8338ZM394.826 75.5778L393.859 69.4954C391.67 70.3744 390.967 71.7632 391.222 73.1783C391.477 74.5934 392.848 75.2526 394.826 75.5778ZM403.853 84.7278C403.615 83.2248 402.235 82.6095 400.293 82.2579L401.242 88.1733C403.316 87.3647 404.072 86.099 403.853 84.7278Z" fill="#E0E0E0"/>
<path d="M109.191 197.217C109.803 201.347 109.176 205.565 107.39 209.339C105.603 213.112 102.737 216.27 99.1547 218.414C95.5721 220.557 91.434 221.59 87.2644 221.38C83.0947 221.17 79.0811 219.728 75.7316 217.236C72.3821 214.744 69.8474 211.314 68.4484 207.38C67.0494 203.447 66.849 199.187 67.8727 195.139C68.8963 191.092 71.0979 187.439 74.1987 184.644C77.2996 181.848 81.1601 180.036 85.2917 179.436C90.8175 178.633 96.4361 180.054 100.916 183.387C105.396 186.72 108.371 191.694 109.191 197.217Z" fill="#F5F5F5"/>
<path d="M104.224 197.938C104.691 201.085 104.213 204.3 102.851 207.175C101.489 210.05 99.3043 212.457 96.5739 214.09C93.8435 215.723 90.6899 216.51 87.5123 216.349C84.3348 216.189 81.2763 215.09 78.7239 213.19C76.1716 211.291 74.2403 208.677 73.1745 205.679C72.1087 202.681 71.9563 199.435 72.7367 196.35C73.5171 193.266 75.1952 190.482 77.5584 188.352C79.9216 186.222 82.8638 184.841 86.0123 184.384C90.2241 183.77 94.5073 184.853 97.9217 187.394C101.336 189.935 103.603 193.727 104.224 197.938Z" fill="#EBEBEB"/>
<path d="M104.145 197.428C103.849 196.836 103.616 196.214 103.451 195.573C102.845 193.915 101.985 192.362 100.902 190.968C100.158 190.017 99.3122 189.15 98.3794 188.383C97.3065 187.51 96.1247 186.781 94.8636 186.212C94.1879 185.9 93.4884 185.641 92.7717 185.439C92.027 185.217 91.2657 185.055 90.4952 184.955C89.7002 184.846 88.8979 184.799 88.0956 184.815C87.2676 184.833 86.4421 184.913 85.6257 185.052C83.2423 185.47 80.9885 186.436 79.0423 187.874C78.442 188.315 77.875 188.799 77.346 189.324C76.3594 190.29 75.5026 191.38 74.797 192.567C74.1847 193.609 73.6867 194.714 73.3115 195.863C72.78 197.547 72.5103 199.302 72.5117 201.067C72.5861 201.724 72.5861 202.387 72.5117 203.044C72.2224 202.434 72.0666 201.769 72.0546 201.093C71.8614 199.256 72.0104 197.4 72.4941 195.617C72.8327 194.393 73.3135 193.213 73.9268 192.101C74.647 190.818 75.5337 189.636 76.5637 188.586C77.1066 188.01 77.6944 187.478 78.3216 186.995C79.6846 185.969 81.1963 185.156 82.8043 184.586C83.6502 184.293 84.5169 184.064 85.3972 183.901C86.269 183.755 87.1503 183.672 88.0341 183.655C88.9161 183.641 89.7977 183.697 90.671 183.822C91.4989 183.941 92.316 184.126 93.1145 184.375C93.8794 184.613 94.6257 184.906 95.347 185.254C97.8538 186.442 100.01 188.259 101.605 190.528C102.674 192.033 103.455 193.723 103.908 195.512C104.116 196.128 104.197 196.78 104.145 197.428Z" fill="#E0E0E0"/>
<path d="M91.497 209.478L91.9365 212.238L89.4666 212.634L89.0359 209.944C86.8328 210.229 84.5939 209.888 82.5756 208.96L83.4545 205.725C85.03 206.491 86.7786 206.83 88.5261 206.71L87.8581 202.587C85.0191 202.368 81.8109 201.946 81.2484 198.412C80.8265 195.775 82.3646 193.244 86.1969 192.181L85.7574 189.438L88.2273 189.043L88.658 191.732C90.4468 191.541 92.2556 191.782 93.9317 192.435L93.1846 195.67C91.9166 195.178 90.5622 194.948 89.2029 194.993L89.8709 199.186C92.7188 199.388 95.8742 199.819 96.428 203.299C96.8147 205.866 95.2941 208.389 91.497 209.478ZM87.278 198.931L86.7155 195.415C85.4586 195.925 85.0542 196.716 85.1861 197.533C85.3179 198.351 86.1354 198.79 87.278 198.966V198.931ZM92.4815 204.205C92.3408 203.326 91.5498 202.992 90.4247 202.79L90.9696 206.191C92.165 205.752 92.6045 205.022 92.4815 204.231V204.205Z" fill="#E0E0E0"/>
<path d="M73.0566 150.79C70.7639 152.245 68.0912 152.986 65.3768 152.921C62.6624 152.856 60.0284 151.987 57.8083 150.424C55.5881 148.861 53.8815 146.674 52.9047 144.141C51.9278 141.608 51.7245 138.842 52.3205 136.193C52.9166 133.544 54.2851 131.131 56.253 129.26C58.2208 127.39 60.6995 126.145 63.3751 125.684C66.0508 125.222 68.8032 125.565 71.2839 126.669C73.7646 127.773 75.862 129.588 77.3107 131.884C78.2728 133.405 78.926 135.1 79.2328 136.873C79.5397 138.646 79.4944 140.463 79.0993 142.218C78.7043 143.974 77.9673 145.634 76.9305 147.105C75.8937 148.576 74.5773 149.828 73.0566 150.79Z" fill="#F5F5F5"/>
<path d="M71.3075 148.03C69.559 149.138 67.5213 149.701 65.4523 149.65C63.3833 149.599 61.3761 148.935 59.6846 147.742C57.9931 146.55 56.6934 144.882 55.95 142.951C55.2066 141.019 55.0529 138.911 55.5084 136.892C55.9639 134.873 57.008 133.034 58.5087 131.609C60.0094 130.184 61.8992 129.236 63.9389 128.885C65.9786 128.535 68.0764 128.797 69.967 129.639C71.8576 130.481 73.4559 131.865 74.5596 133.615C76.0394 135.958 76.5281 138.793 75.9183 141.496C75.3084 144.2 73.6499 146.55 71.3075 148.03Z" fill="#EBEBEB"/>
<path d="M71.5886 147.855C71.5886 147.802 71.9138 147.521 72.4675 146.976C73.295 146.178 73.992 145.256 74.5331 144.242C75.3352 142.753 75.7579 141.09 75.7636 139.399C75.7733 138.914 75.7439 138.429 75.6757 137.949C75.6082 137.449 75.5025 136.955 75.3593 136.472C75.2125 135.969 75.0274 135.479 74.8056 135.004C74.3498 134.035 73.7414 133.144 73.0037 132.367C72.6501 131.984 72.265 131.631 71.8523 131.313C71.4576 130.986 71.0373 130.692 70.5954 130.434C70.1869 130.171 69.7577 129.941 69.3121 129.748C68.4652 129.416 67.5789 129.194 66.6752 129.089C65.8949 129.01 65.1087 129.01 64.3284 129.089C63.1875 129.207 62.0723 129.504 61.0235 129.968C60.6456 130.176 60.2482 130.347 59.8369 130.478C59.8369 130.478 60.1533 130.117 60.8829 129.687C61.9218 129.087 63.0635 128.688 64.2493 128.509C65.0716 128.377 65.9067 128.345 66.7367 128.412C67.6959 128.494 68.6393 128.707 69.5406 129.045C70.0319 129.223 70.508 129.441 70.9645 129.695C71.4416 129.951 71.8973 130.245 72.3269 130.574C73.2336 131.277 74.0228 132.12 74.6649 133.071C74.9968 133.554 75.2907 134.062 75.5439 134.591C75.7799 135.103 75.9768 135.632 76.1328 136.173C76.2794 136.698 76.3852 137.232 76.4492 137.773C76.5161 138.292 76.5396 138.815 76.5195 139.338C76.4954 140.297 76.3417 141.249 76.0625 142.168C75.8146 142.965 75.4723 143.729 75.0429 144.444C74.4317 145.479 73.6329 146.392 72.6873 147.134C72.375 147.448 72.0009 147.693 71.5886 147.855Z" fill="#E0E0E0"/>
<path d="M61.0939 143.513L59.5645 144.506L58.6855 143.143L60.171 142.177C59.4164 140.942 59.0292 139.518 59.0547 138.072L61.1994 137.738C61.1627 138.878 61.4232 140.008 61.9553 141.016L64.2318 139.531C63.6165 137.773 63.0188 135.76 64.9701 134.494C66.4116 133.554 68.3365 133.791 69.9802 135.786L71.492 134.802L72.3709 136.164L70.8855 137.131C71.4668 138.141 71.8011 139.273 71.8611 140.436L69.7341 140.849C69.6923 139.965 69.4741 139.099 69.0924 138.3L66.772 139.812C67.4048 141.57 67.9849 143.548 66.06 144.796C64.6449 145.719 62.7375 145.481 61.0939 143.513ZM66.227 138.239L68.1607 136.973C67.5279 136.358 66.9478 136.331 66.4995 136.622C66.0512 136.912 66.0248 137.5 66.227 138.23V138.239ZM64.4691 142.721C64.9437 142.405 64.9437 141.843 64.7679 141.122L62.887 142.352C63.4847 142.932 64.0384 142.994 64.4691 142.713V142.721Z" fill="#E0E0E0"/>
<path d="M441.112 37.5804C438.819 39.035 436.146 39.7766 433.432 39.7113C430.718 39.6461 428.084 38.777 425.863 37.2141C423.643 35.6511 421.937 33.4646 420.96 30.9312C419.983 28.3979 419.78 25.6317 420.376 22.9828C420.972 20.3339 422.34 17.9213 424.308 16.0506C426.276 14.1799 428.755 12.935 431.43 12.4737C434.106 12.0124 436.858 12.3553 439.339 13.459C441.82 14.5627 443.917 16.3777 445.366 18.674C446.329 20.1944 446.983 21.8898 447.291 23.6632C447.598 25.4366 447.553 27.2532 447.158 29.0091C446.763 30.7651 446.026 32.4259 444.988 33.8966C443.951 35.3674 442.633 36.6192 441.112 37.5804Z" fill="#F5F5F5"/>
<path d="M439.354 34.8205C437.606 35.9301 435.568 36.4961 433.499 36.4468C431.429 36.3976 429.421 35.7352 427.728 34.5437C426.035 33.3521 424.733 31.685 423.989 29.7534C423.244 27.8217 423.089 25.7125 423.543 23.6928C423.998 21.6732 425.042 19.8338 426.543 18.4078C428.044 16.9817 429.934 16.0331 431.974 15.6821C434.014 15.331 436.113 15.5933 438.004 16.4357C439.895 17.2782 441.494 18.6628 442.597 20.4144C444.077 22.7549 444.567 25.5875 443.959 28.2891C443.351 30.9908 441.694 33.3402 439.354 34.8205Z" fill="#EBEBEB"/>
<path d="M439.617 34.6447C439.617 34.592 439.943 34.3107 440.496 33.7658C441.324 32.9684 442.021 32.046 442.562 31.0322C442.939 30.3424 443.234 29.6108 443.441 28.8524C443.674 27.9923 443.798 27.1065 443.81 26.2155C443.826 25.7137 443.806 25.2113 443.749 24.7125C443.681 24.2129 443.575 23.7192 443.432 23.2358C443.288 22.7324 443.102 22.2415 442.878 21.768C442.651 21.2798 442.386 20.8097 442.087 20.3616C441.793 19.9193 441.467 19.4992 441.112 19.1047C440.755 18.7184 440.367 18.3626 439.951 18.0412C439.558 17.7129 439.138 17.4188 438.695 17.1622C438.274 16.9196 437.836 16.7081 437.385 16.5294C436.539 16.1957 435.652 15.9769 434.748 15.879C433.968 15.7911 433.181 15.7911 432.401 15.879C431.26 15.9975 430.145 16.2941 429.096 16.7579C428.721 16.971 428.323 17.142 427.91 17.2677C427.91 17.2677 428.226 16.9073 428.956 16.4767C429.998 15.8929 431.139 15.5084 432.322 15.3428C433.144 15.21 433.98 15.1805 434.81 15.2549C435.768 15.3334 436.712 15.5434 437.613 15.879C438.105 16.0574 438.581 16.2749 439.037 16.5294C440.015 17.0678 440.904 17.7525 441.674 18.5598C442.062 18.971 442.418 19.4118 442.738 19.8782C443.069 20.3618 443.363 20.8702 443.617 21.3988C443.85 21.9107 444.044 22.4396 444.197 22.9809C444.348 23.5042 444.454 24.0394 444.513 24.5806C444.58 25.0993 444.604 25.6226 444.584 26.1452C444.559 27.1049 444.406 28.0569 444.126 28.9754C443.877 29.7912 443.529 30.5734 443.089 31.3047C442.475 32.3202 441.68 33.2141 440.742 33.9416C440.42 34.2506 440.037 34.4899 439.617 34.6447Z" fill="#E0E0E0"/>
<path d="M429.123 30.3027L427.593 31.3047L426.714 29.9423L428.2 28.9754C427.435 27.7405 427.036 26.3143 427.048 24.8619L429.193 24.5279C429.16 25.6674 429.421 26.7963 429.949 27.8064L432.225 26.321C431.61 24.5631 431.012 22.5503 432.964 21.2846C434.405 20.3441 436.33 20.5814 437.974 22.5766L439.521 21.6361L440.4 22.9985L438.914 23.9654C439.493 24.9783 439.825 26.1137 439.881 27.2791L437.763 27.6834C437.715 26.8021 437.494 25.9389 437.112 25.1432L434.792 26.6462C435.425 28.4041 436.005 30.3818 434.08 31.6299C432.674 32.5089 430.775 32.2715 429.123 30.3027ZM434.256 25.0289L436.19 23.772C435.557 23.1479 434.977 23.1216 434.528 23.4116C434.08 23.7017 434.08 24.273 434.256 25.0201V25.0289ZM432.498 29.5116C432.973 29.1952 432.973 28.6326 432.797 27.9207L430.916 29.1424C431.513 29.7138 432.058 29.7841 432.498 29.5468V29.5116Z" fill="#E0E0E0"/>
<path d="M590.763 399.026C590.763 399.149 458.823 399.254 296.101 399.254C133.379 399.254 1.40381 399.149 1.40381 399.026C1.40381 398.903 133.318 398.797 296.101 398.797C458.884 398.797 590.763 398.894 590.763 399.026Z" fill="#263238"/>
<path d="M554.497 103.942H219.86C218.488 103.942 217.13 104.212 215.862 104.738C214.595 105.263 213.443 106.033 212.474 107.003C211.504 107.974 210.735 109.126 210.211 110.394C209.686 111.662 209.417 113.021 209.418 114.393V350.753C209.418 353.523 210.518 356.179 212.477 358.137C214.435 360.095 217.091 361.196 219.86 361.196H348.294C348.294 361.196 356.468 386.457 331.136 399.536H451.229C451.229 399.536 422.654 389.727 429.984 361.196H554.497C557.267 361.196 559.923 360.095 561.881 358.137C563.839 356.179 564.939 353.523 564.939 350.753V114.393C564.941 113.021 564.671 111.662 564.147 110.394C563.623 109.126 562.854 107.974 561.884 107.003C560.914 106.033 559.763 105.263 558.495 104.738C557.228 104.212 555.869 103.942 554.497 103.942Z" fill="#263238"/>
<path d="M391.644 336.303C396.197 342.808 389.077 349.936 382.564 345.383C382.348 345.23 382.161 345.039 382.011 344.82C377.466 338.316 384.586 331.205 391.09 335.75C391.304 335.902 391.491 336.089 391.644 336.303Z" fill="#455A64"/>
<path d="M223.701 108.275H550.674C552.935 108.275 555.104 109.173 556.703 110.772C558.301 112.371 559.2 114.54 559.2 116.801V317.96H215.219V116.801C215.219 114.547 216.111 112.385 217.701 110.788C219.29 109.19 221.448 108.287 223.701 108.275Z" fill="white"/>
<path d="M255.607 155.607H244.322V281.615H255.607V155.607Z" fill="#7C3AED"/>
<path d="M277.388 198.404H266.102V281.615H277.388V198.404Z" fill="#7C3AED"/>
<path d="M299.169 171.27H287.883V282.256H299.169V171.27Z" fill="#7C3AED"/>
<path d="M320.958 160.476H309.672V281.615H320.958V160.476Z" fill="#7C3AED"/>
<path d="M342.739 200.97H331.453V281.615H342.739V200.97Z" fill="#7C3AED"/>
<path d="M364.519 216.783H353.233V281.615H364.519V216.783Z" fill="#7C3AED"/>
<path d="M386.3 168.545H375.014V281.615H386.3V168.545Z" fill="#7C3AED"/>
<path d="M408.08 188.928H396.794V281.615H408.08V188.928Z" fill="#7C3AED"/>
<path d="M429.87 172.641H418.584V281.615H429.87V172.641Z" fill="#7C3AED"/>
<path d="M451.65 207.369H440.365V281.615H451.65V207.369Z" fill="#7C3AED"/>
<path d="M495.097 168.545H483.812V281.615H495.097V168.545Z" fill="#7C3AED"/>
<path d="M541.357 241.297H530.071V279.988H541.357V241.297Z" fill="#7C3AED"/>
<path d="M518.803 207.369H507.517V281.615H518.803V207.369Z" fill="#7C3AED"/>
<path d="M473.431 193.244H462.145V281.615H473.431V193.244Z" fill="#7C3AED"/>
<path d="M544.521 171.674C544.19 171.645 543.861 171.592 543.537 171.516L540.663 170.927C539.112 170.596 537.546 170.346 535.969 170.18C533.827 169.881 531.67 169.702 529.509 169.644C523.58 169.446 517.65 169.953 511.841 171.156C504.164 172.803 496.78 175.6 489.938 179.453C481.647 184.124 474.155 190.088 467.744 197.12C460.836 204.697 455.008 214.058 449.049 223.964C443.089 233.87 436.901 244.505 428.033 253.681C423.597 258.423 418.357 262.342 412.554 265.257C409.543 266.719 406.323 267.704 403.009 268.175C399.641 268.624 396.222 268.508 392.892 267.833C386.194 266.356 380.261 262.84 375.269 258.595C370.372 254.376 365.991 249.594 362.216 244.347C354.64 234.151 349.261 223.164 343.503 213.152C337.746 203.141 331.971 193.719 324.808 186.379C321.416 182.806 317.522 179.744 313.25 177.291C311.241 176.132 309.153 175.119 307 174.259C304.92 173.49 302.791 172.859 300.628 172.369C292.977 170.622 285.008 170.846 277.467 173.019C271.772 174.648 266.395 177.234 261.567 180.666C258.548 182.886 255.751 185.394 253.217 188.155L251.257 190.326C251.042 190.585 250.807 190.826 250.553 191.047C250.726 190.761 250.926 190.493 251.151 190.247L253.006 187.962C255.482 185.112 258.248 182.529 261.259 180.253C266.094 176.712 271.507 174.035 277.256 172.342C284.902 170.046 293.008 169.744 300.804 171.463C309.479 173.221 318.321 178.179 325.537 185.615C332.754 193.051 338.766 202.482 344.497 212.537C350.227 222.592 355.695 233.518 363.192 243.582C366.916 248.758 371.235 253.478 376.06 257.645C380.947 261.803 386.713 265.196 393.129 266.611C396.312 267.252 399.579 267.362 402.798 266.936C405.985 266.479 409.084 265.533 411.983 264.132C417.666 261.279 422.799 257.443 427.145 252.802C435.891 243.811 442.008 233.193 448.055 223.357C454.103 213.522 459.939 204.02 466.971 196.408C473.488 189.335 481.093 183.347 489.498 178.671C496.438 174.821 503.925 172.056 511.701 170.47C517.566 169.304 523.553 168.861 529.526 169.152C531.703 169.241 533.872 169.461 536.022 169.811C537.602 170.01 539.17 170.303 540.715 170.69L543.563 171.402C543.889 171.467 544.21 171.558 544.521 171.674Z" fill="#263238"/>
<path d="M231.919 290.395C231.665 290.395 231.454 254.464 231.454 210.146C231.454 165.829 231.665 129.897 231.919 129.897C232.174 129.897 232.385 165.821 232.385 210.146C232.385 254.472 232.157 290.395 231.919 290.395Z" fill="#263238"/>
<path d="M541.313 290.395C541.313 290.65 473.633 290.852 390.132 290.852C306.631 290.852 238.951 290.65 238.951 290.395C238.951 290.14 306.631 289.93 390.132 289.93C473.633 289.93 541.313 290.14 541.313 290.395Z" fill="#263238"/>
<path d="M260.415 300.31C260.415 300.565 256.671 300.776 252.048 300.776C247.424 300.776 243.671 300.565 243.671 300.31C243.671 300.055 247.416 299.844 252.048 299.844C256.68 299.844 260.415 300.055 260.415 300.31Z" fill="#263238"/>
<path d="M288.173 300.811C288.173 301.075 283.69 301.277 278.17 301.277C272.65 301.277 268.159 301.075 268.159 300.811C268.159 300.547 272.642 300.354 278.17 300.354C283.699 300.354 288.173 300.556 288.173 300.811Z" fill="#263238"/>
<path d="M311.905 300.811C311.905 301.075 307.422 301.277 301.902 301.277C296.382 301.277 291.891 301.075 291.891 300.811C291.891 300.547 296.374 300.354 301.902 300.354C307.431 300.354 311.905 300.556 311.905 300.811Z" fill="#263238"/>
<path d="M335.566 300.811C335.566 301.075 331.084 301.277 325.564 301.277C320.044 301.277 315.552 301.075 315.552 300.811C315.552 300.547 320.035 300.354 325.564 300.354C331.092 300.354 335.566 300.556 335.566 300.811Z" fill="#263238"/>
<path d="M359.254 300.811C359.254 301.075 354.78 301.277 349.252 301.277C343.723 301.277 339.24 301.075 339.24 300.811C339.24 300.547 343.723 300.354 349.252 300.354C354.78 300.354 359.254 300.556 359.254 300.811Z" fill="#263238"/>
<path d="M382.951 300.811C382.951 301.075 378.468 301.277 372.94 301.277C367.411 301.277 362.937 301.075 362.937 300.811C362.937 300.547 367.411 300.354 372.94 300.354C378.468 300.354 382.951 300.556 382.951 300.811Z" fill="#263238"/>
<path d="M406.639 300.811C406.639 301.075 402.156 301.277 396.628 301.277C391.099 301.277 386.625 301.075 386.625 300.811C386.625 300.547 391.099 300.354 396.628 300.354C402.156 300.354 406.639 300.556 406.639 300.811Z" fill="#263238"/>
<path d="M430.327 300.811C430.327 301.075 425.844 301.277 420.316 301.277C414.787 301.277 410.313 301.075 410.313 300.811C410.313 300.547 414.796 300.354 420.316 300.354C425.835 300.354 430.327 300.556 430.327 300.811Z" fill="#263238"/>
<path d="M454.015 300.811C454.015 301.075 449.532 301.277 444.012 301.277C438.492 301.277 434.001 301.075 434.001 300.811C434.001 300.547 438.484 300.354 444.012 300.354C449.541 300.354 454.015 300.556 454.015 300.811Z" fill="#263238"/>
<path d="M477.703 300.811C477.703 301.075 473.22 301.277 467.7 301.277C462.18 301.277 457.689 301.075 457.689 300.811C457.689 300.547 462.171 300.354 467.7 300.354C473.229 300.354 477.703 300.556 477.703 300.811Z" fill="#263238"/>
<path d="M499.738 300.82C499.738 301.083 495.256 301.286 489.727 301.286C484.198 301.286 479.724 301.083 479.724 300.82C479.724 300.556 484.207 300.363 489.727 300.363C495.247 300.363 499.738 300.565 499.738 300.82Z" fill="#263238"/>
<path d="M521.774 300.829C521.774 301.084 517.291 301.294 511.762 301.294C506.234 301.294 501.76 301.084 501.76 300.829C501.76 300.574 506.234 300.372 511.762 300.372C517.291 300.372 521.774 300.574 521.774 300.829Z" fill="#263238"/>
<path d="M543.801 300.837C543.801 301.092 539.318 301.303 533.798 301.303C528.278 301.303 523.787 301.092 523.787 300.837C523.787 300.583 528.269 300.372 533.798 300.372C539.327 300.372 543.801 300.583 543.801 300.837Z" fill="#263238"/>
<path d="M347.063 214.278C347.063 214.084 348.452 214.568 348.891 216.457C349.173 217.548 349.048 218.704 348.54 219.709C348.198 220.372 347.606 220.871 346.896 221.098C346.125 221.315 345.3 221.217 344.602 220.826C343.969 220.472 343.45 219.947 343.103 219.311C342.756 218.675 342.596 217.954 342.642 217.231C342.683 216.662 342.845 216.109 343.116 215.607C343.387 215.106 343.762 214.667 344.215 214.321C344.512 214.079 344.86 213.905 345.232 213.814C345.605 213.723 345.993 213.716 346.369 213.794C346.896 213.952 347.072 214.207 347.037 214.26C347.002 214.313 345.894 213.908 344.787 215.007C344.178 215.608 343.825 216.42 343.802 217.275C343.798 217.769 343.925 218.256 344.171 218.685C344.416 219.115 344.771 219.471 345.2 219.718C345.391 219.838 345.605 219.917 345.827 219.951C346.05 219.986 346.278 219.975 346.496 219.919C346.715 219.863 346.92 219.763 347.099 219.626C347.278 219.489 347.427 219.317 347.538 219.121C347.957 218.357 348.123 217.48 348.012 216.616C347.863 215.007 346.966 214.427 347.063 214.278Z" fill="#263238"/>
<path d="M495.554 172.817C495.554 172.747 495.915 172.632 496.539 172.817C497.401 173.14 498.116 173.764 498.552 174.575C498.9 175.165 499.124 175.821 499.209 176.501C499.293 177.182 499.237 177.872 499.044 178.53C498.815 179.39 498.317 180.153 497.622 180.708C496.928 181.263 496.074 181.581 495.185 181.615C494.708 181.594 494.242 181.468 493.819 181.248C493.395 181.028 493.025 180.719 492.733 180.341C492.221 179.699 491.866 178.947 491.696 178.144C491.527 177.48 491.496 176.789 491.605 176.114C491.714 175.438 491.96 174.792 492.329 174.215C493.717 172.255 495.431 172.351 495.37 172.457C495.449 172.641 494.016 172.914 493.093 174.628C492.604 175.619 492.507 176.758 492.821 177.818C493.12 178.979 494.016 180.306 495.229 180.315C495.849 180.264 496.439 180.028 496.924 179.638C497.408 179.248 497.764 178.721 497.945 178.126C498.289 177.083 498.223 175.949 497.76 174.953C497.295 174.007 496.515 173.252 495.554 172.817Z" fill="#263238"/>
<path d="M367.534 44.3221H141.105V220.544H367.534V44.3221Z" fill="white"/>
<path d="M367.534 220.545C367.534 218.787 367.455 150.667 367.323 44.3221L367.534 44.533H141.132L141.387 44.2781C141.387 107.8 141.387 167.877 141.387 220.501L141.158 220.272L367.587 220.501L141.158 220.729H140.93V220.501C140.93 167.877 140.93 107.8 140.93 44.2781V44.0232H141.211H367.613H367.824V44.2342C367.622 150.667 367.543 218.787 367.534 220.545Z" fill="#263238"/>
<path d="M188.807 67.4738H152.154V69.513H188.807V67.4738Z" fill="#263238"/>
<path d="M170.269 72.2466H152.154V74.2858H170.269V72.2466Z" fill="#263238"/>
<path d="M179.683 195.222H173.047V197.138H179.683V195.222Z" fill="#263238"/>
<path d="M196.559 205.453H188.068V207.369H196.559V205.453Z" fill="#263238"/>
<path d="M226.118 205.453H217.628V207.369H226.118V205.453Z" fill="#263238"/>
<path d="M255.678 205.453H247.187V207.369H255.678V205.453Z" fill="#263238"/>
<path d="M285.237 205.453H276.746V207.369H285.237V205.453Z" fill="#263238"/>
<path d="M314.796 205.453H306.306V207.369H314.796V205.453Z" fill="#263238"/>
<path d="M344.356 205.453H335.865V207.369H344.356V205.453Z" fill="#263238"/>
<path d="M179.683 169.67H173.047V171.587H179.683V169.67Z" fill="#263238"/>
<path d="M179.683 121.574H173.047V123.49H179.683V121.574Z" fill="#263238"/>
<path d="M179.683 97.4024H173.047V99.3185H179.683V97.4024Z" fill="#263238"/>
<path d="M180.026 145.622H173.39V147.538H180.026V145.622Z" fill="#263238"/>
<path d="M344.118 197.138C344.118 197.138 343.881 197.138 343.407 197.138H341.315L333.281 197.182L303.739 197.261L206.254 197.322H182.926V197.094C182.926 164.493 182.988 135.804 183.005 115.254C183.005 104.988 183.058 96.7959 183.076 91.0827C183.076 88.2612 183.076 86.0726 183.076 84.5784C183.076 83.8401 183.076 83.2863 183.076 82.8908C183.076 82.4953 183.076 82.3195 183.076 82.3195C183.076 82.3195 183.076 82.5128 183.076 82.8908C183.076 83.2687 183.076 83.8401 183.076 84.5784C183.076 86.0726 183.076 88.2612 183.076 91.0827C183.076 96.7608 183.076 104.988 183.146 115.254C183.146 135.804 183.19 164.476 183.225 197.094L182.997 196.865H206.254L303.739 196.936L333.281 197.006L341.315 197.05H343.407L344.118 197.138Z" fill="#263238"/>
<path d="M345.991 146.58C345.991 146.703 310.973 146.809 267.763 146.809C224.554 146.809 189.536 146.703 189.536 146.58C189.536 146.457 224.545 146.352 267.763 146.352C310.982 146.352 345.991 146.448 345.991 146.58Z" fill="#263238"/>
<path d="M345.991 122.532C345.991 122.655 310.973 122.76 267.763 122.76C224.554 122.76 189.536 122.655 189.536 122.532C189.536 122.409 224.545 122.303 267.763 122.303C310.982 122.303 345.991 122.409 345.991 122.532Z" fill="#263238"/>
<path d="M345.991 98.3605C345.991 98.4923 310.973 98.589 267.763 98.589C224.554 98.589 189.536 98.4923 189.536 98.3605C189.536 98.2286 224.545 98.1319 267.763 98.1319C310.982 98.1319 345.991 98.2374 345.991 98.3605Z" fill="#263238"/>
<path d="M345.991 170.628C345.991 170.751 310.973 170.857 267.763 170.857C224.554 170.857 189.536 170.751 189.536 170.628C189.536 170.505 224.545 170.4 267.763 170.4C310.982 170.4 345.991 170.505 345.991 170.628Z" fill="#263238"/>
<path d="M191.188 191.961V170.628L204.487 149.964L213.514 156.89L232.034 128.122L242.959 135.813L258.156 109.268L270.462 119.332L289.052 84.1389L309.004 123.49L325.089 103.801L344.083 98.3604V191.961H191.188Z" fill="#455A64"/>
<path d="M345.991 90.7838C345.879 90.7914 345.768 90.7914 345.657 90.7838H344.663H340.814L326.232 90.8453L326.328 90.7926L310.7 111.29L310.639 111.36H310.551H271.437L271.631 111.255L255.185 138.626C249.586 147.943 244.163 156.952 239.039 165.46L238.872 165.75L238.679 165.478L217.478 136.358H217.786L198.519 166.489L193.149 174.821C192.533 175.77 192.059 176.5 191.725 177.001C191.391 177.502 191.224 177.739 191.224 177.739C191.224 177.739 191.373 177.476 191.681 176.975L193.052 174.768C194.274 172.826 196.058 169.987 198.326 166.374L217.487 136.164L217.636 135.936L217.803 136.156L239.048 165.24H238.679L254.772 138.415L271.235 111.044L271.297 110.938H271.473L310.586 110.982L310.446 111.053L326.17 90.7135V90.6608H326.232L340.814 90.7223H344.663H345.657L345.991 90.7838Z" fill="#263238"/>
<path d="M224.009 143.099C224.021 143.399 223.944 143.695 223.786 143.951C223.629 144.206 223.398 144.408 223.125 144.531C222.852 144.654 222.548 144.693 222.252 144.642C221.957 144.591 221.683 144.453 221.467 144.246C221.25 144.038 221.101 143.771 221.038 143.478C220.975 143.184 221.001 142.879 221.112 142.601C221.224 142.323 221.416 142.084 221.665 141.916C221.913 141.748 222.206 141.658 222.506 141.658C222.896 141.651 223.273 141.799 223.555 142.069C223.836 142.339 224 142.709 224.009 143.099Z" fill="#263238"/>
<path d="M269.152 117.443C269.165 117.743 269.087 118.039 268.929 118.295C268.771 118.55 268.54 118.752 268.266 118.875C267.992 118.998 267.688 119.036 267.392 118.985C267.097 118.933 266.823 118.794 266.607 118.586C266.391 118.377 266.242 118.109 266.18 117.815C266.118 117.522 266.145 117.216 266.258 116.938C266.371 116.66 266.565 116.422 266.815 116.255C267.064 116.088 267.358 116 267.658 116.001C267.851 115.998 268.042 116.032 268.222 116.103C268.401 116.173 268.565 116.279 268.704 116.412C268.843 116.546 268.954 116.706 269.03 116.883C269.107 117.06 269.149 117.25 269.152 117.443Z" fill="#263238"/>
<path d="M302.728 112.6C303.558 112.6 304.231 111.954 304.231 111.158C304.231 110.362 303.558 109.717 302.728 109.717C301.898 109.717 301.225 110.362 301.225 111.158C301.225 111.954 301.898 112.6 302.728 112.6Z" fill="#263238"/>
<path d="M150.572 51.5735C150.572 51.9212 150.469 52.261 150.275 52.5501C150.082 52.8392 149.808 53.0645 149.487 53.1976C149.165 53.3306 148.812 53.3654 148.471 53.2976C148.13 53.2298 147.817 53.0624 147.571 52.8165C147.325 52.5707 147.158 52.2574 147.09 51.9164C147.022 51.5754 147.057 51.222 147.19 50.9007C147.323 50.5795 147.548 50.305 147.837 50.1118C148.126 49.9187 148.466 49.8156 148.814 49.8156C149.28 49.8156 149.727 50.0008 150.057 50.3304C150.387 50.6601 150.572 51.1072 150.572 51.5735Z" fill="#263238"/>
<path d="M155.635 51.5735C155.635 51.9212 155.532 52.261 155.338 52.5501C155.145 52.8392 154.871 53.0645 154.55 53.1976C154.228 53.3306 153.875 53.3654 153.534 53.2976C153.193 53.2298 152.88 53.0624 152.634 52.8165C152.388 52.5707 152.221 52.2574 152.153 51.9164C152.085 51.5754 152.12 51.222 152.253 50.9007C152.386 50.5795 152.611 50.305 152.9 50.1118C153.189 49.9187 153.529 49.8156 153.877 49.8156C154.343 49.8156 154.79 50.0008 155.12 50.3304C155.45 50.6601 155.635 51.1072 155.635 51.5735Z" fill="#263238"/>
<path d="M160.724 51.5735C160.724 51.9212 160.621 52.261 160.428 52.5501C160.234 52.8392 159.96 53.0645 159.639 53.1976C159.317 53.3306 158.964 53.3654 158.623 53.2976C158.282 53.2298 157.969 53.0624 157.723 52.8165C157.477 52.5707 157.31 52.2574 157.242 51.9164C157.174 51.5754 157.209 51.222 157.342 50.9007C157.475 50.5795 157.7 50.305 157.989 50.1118C158.278 49.9187 158.618 49.8156 158.966 49.8156C159.432 49.8156 159.879 50.0008 160.209 50.3304C160.539 50.6601 160.724 51.1072 160.724 51.5735Z" fill="#263238"/>
<path d="M367.349 58.4382C367.349 58.5612 316.757 58.6667 254.359 58.6667C191.962 58.6667 141.387 58.5524 141.387 58.4382C141.387 58.3239 191.971 58.2096 254.386 58.2096C316.801 58.2096 367.349 58.3063 367.349 58.4382Z" fill="#263238"/>
<path d="M1.56197 325.378L6.31714 342.456C7.62499 347.094 10.5916 351.089 14.6528 353.682C18.714 356.275 23.5866 357.285 28.3438 356.519C28.3438 356.519 37.3444 369.352 41.1854 371.462L44.6485 398.824H65.1898L66.8159 387.74C81.5795 393.939 97.537 396.776 113.533 396.046C139.541 394.666 145.773 387.046 145.773 387.046L148.884 398.824H172.089L175.903 368.693C175.903 368.693 204.294 343.414 196.998 313.978C196.998 313.978 217.425 300.029 210.499 280.164L206.342 278.292C206.342 278.292 199.758 290.061 192.832 292.487C192.832 292.487 174.198 232.577 104.057 237.429C104.057 237.429 80.6507 236.392 58.4833 246.773C58.4833 246.773 33.8725 233.966 15.5462 243.31C15.5462 243.31 15.2034 264.405 25.5839 276.561C25.5839 276.561 16.5834 296.645 15.9154 300.802L13.2345 301.875C8.73492 303.666 5.05505 307.055 2.90087 311.393C0.746699 315.73 0.26991 320.71 1.56197 325.378Z" fill="#7C3AED"/>
<path d="M51.1792 299.642C51.1792 300.777 50.8425 301.887 50.2119 302.831C49.5812 303.775 48.6848 304.51 47.636 304.945C46.5872 305.379 45.4332 305.493 44.3198 305.271C43.2064 305.05 42.1837 304.503 41.381 303.701C40.5783 302.898 40.0317 301.875 39.8102 300.762C39.5888 299.648 39.7024 298.494 40.1369 297.446C40.5713 296.397 41.3069 295.5 42.2508 294.87C43.1947 294.239 44.3044 293.902 45.4396 293.902C46.9618 293.902 48.4217 294.507 49.4981 295.583C50.5744 296.66 51.1792 298.12 51.1792 299.642Z" fill="#263238"/>
<g opacity="0.6">
<path d="M77.6182 252.635L80.1935 259.86C80.1935 259.86 111.405 250.57 131.525 259.86L134.364 252.635C134.364 252.635 109.858 241.288 77.6182 252.635Z" fill="black"/>
</g>
<path d="M136.895 263.174C136.697 263.076 136.507 262.964 136.324 262.84C135.955 262.603 135.401 262.277 134.689 261.864C132.663 260.713 130.536 259.748 128.334 258.981C125.069 257.851 121.692 257.073 118.261 256.661C114.056 256.17 109.818 256.011 105.587 256.186C101.35 256.306 97.1229 256.643 92.921 257.197C89.493 257.639 86.1183 258.425 82.8482 259.544C80.6464 260.303 78.531 261.293 76.5372 262.497C75.1221 263.376 74.4014 263.912 74.3662 263.868C74.5263 263.713 74.6999 263.572 74.8848 263.446C75.3818 263.051 75.9013 262.684 76.4406 262.348C78.4159 261.076 80.5304 260.035 82.7427 259.245C86.0189 258.071 89.41 257.246 92.8595 256.784C97.0772 256.21 101.323 255.867 105.578 255.756C109.83 255.579 114.09 255.749 118.314 256.265C121.771 256.706 125.169 257.522 128.449 258.7C130.651 259.503 132.771 260.519 134.777 261.733C135.489 262.172 136.025 262.532 136.368 262.787C136.554 262.902 136.73 263.031 136.895 263.174Z" fill="#263238"/>
<g opacity="0.2">
<path d="M14.6935 317.784C14.3628 316.891 13.8374 316.083 13.1554 315.419C12.8095 315.092 12.3754 314.874 11.9067 314.791C11.4381 314.709 10.9554 314.765 10.5185 314.953C9.85153 315.482 9.38614 316.224 9.20005 317.054C8.04157 322.286 8.95182 327.763 11.7402 332.339C11.9288 332.659 12.1829 332.936 12.4858 333.151C12.7888 333.366 13.1338 333.515 13.4982 333.587C15.0715 333.86 15.8977 332.427 16.2845 331.126C17.6117 326.74 16.5745 321.968 14.6935 317.784Z" fill="black"/>
</g>
<path d="M27.2978 331.909C27.2536 331.473 27.2536 331.034 27.2978 330.599C27.3269 330.087 27.3269 329.573 27.2978 329.061C27.2978 328.463 27.2978 327.777 27.2978 327.022C27.2978 326.266 27.2187 325.448 27.1044 324.569C26.9902 323.69 26.8495 322.759 26.6825 321.774C25.8778 317.525 24.3147 313.455 22.068 309.759C21.5318 308.88 21.0484 308.106 20.5122 307.403C19.9761 306.7 19.4927 306.032 19.0092 305.443C18.5258 304.854 18.0687 304.362 17.6732 303.914C17.2777 303.465 16.9173 303.096 16.6185 302.797C16.298 302.504 16.0038 302.184 15.7395 301.839C16.1037 302.087 16.4449 302.366 16.7591 302.674C17.1498 303.009 17.5224 303.364 17.8754 303.738C18.3685 304.213 18.835 304.715 19.2729 305.241C19.7739 305.812 20.3101 306.445 20.8375 307.175C21.3648 307.904 21.8922 308.695 22.446 309.539C23.5874 311.392 24.5638 313.342 25.3641 315.367C26.1318 317.412 26.72 319.521 27.122 321.669C27.2714 322.662 27.4384 323.602 27.5 324.499C27.5615 325.396 27.623 326.257 27.6406 326.978C27.6582 327.698 27.6406 328.428 27.6406 329.034C27.6311 329.549 27.5929 330.062 27.5263 330.573C27.4864 331.023 27.41 331.47 27.2978 331.909Z" fill="#263238"/>
<path d="M33.6001 319.603C33.5122 319.603 33.1782 318.153 32.2025 315.929C31.6281 314.634 30.9552 313.385 30.1897 312.194C29.2318 310.767 28.1556 309.423 26.9727 308.177C25.7598 306.938 24.4424 305.805 23.035 304.793C21.8775 303.978 20.6578 303.255 19.3873 302.63C17.2163 301.567 15.7484 301.171 15.7836 301.083C16.135 301.119 16.4805 301.199 16.812 301.321C17.2159 301.426 17.6123 301.558 17.9986 301.716C18.5195 301.896 19.0301 302.104 19.5279 302.34C20.8377 302.934 22.0935 303.639 23.2811 304.45C24.7246 305.457 26.0695 306.599 27.2979 307.86C28.5102 309.142 29.5963 310.537 30.5413 312.027C31.306 313.244 31.9619 314.526 32.5014 315.859C32.7475 316.421 32.9057 316.958 33.0639 317.415C33.2001 317.806 33.3117 318.205 33.3979 318.61C33.5074 318.931 33.5754 319.265 33.6001 319.603Z" fill="#263238"/>
<path d="M9.68352 316.966C9.64633 316.806 9.65461 316.639 9.70743 316.484C9.76024 316.329 9.85548 316.191 9.98236 316.087C10.2643 315.807 10.633 315.63 11.0283 315.586C11.2911 315.561 11.5564 315.588 11.8085 315.666C12.0606 315.745 12.2944 315.873 12.4962 316.043C13.4028 316.98 14.0797 318.114 14.4738 319.357C15.6703 322.27 16.2682 325.394 16.2318 328.542C16.3284 329.846 16.0894 331.154 15.5374 332.339C15.3139 332.736 14.9772 333.058 14.5702 333.263C14.1632 333.468 13.7043 333.547 13.2521 333.491C12.6017 333.368 12.3731 332.998 12.4259 333.007C12.6932 333.172 12.993 333.277 13.3048 333.315C13.7105 333.334 14.1131 333.236 14.4651 333.034C14.8171 332.831 15.1038 332.532 15.2913 332.172C15.7718 331.026 15.962 329.779 15.845 328.542C15.8392 326.999 15.6891 325.46 15.3967 323.945C15.1105 322.43 14.6869 320.945 14.1311 319.506C13.7712 318.316 13.1563 317.218 12.3292 316.289C12.0363 316.015 11.6536 315.857 11.2525 315.844C10.8514 315.831 10.4593 315.964 10.1494 316.219C9.91859 316.412 9.75541 316.674 9.68352 316.966Z" fill="#263238"/>
<path d="M53.8601 321.018C53.8601 321.018 54.0007 321.185 54.1589 321.546C54.3613 322.055 54.4915 322.591 54.5457 323.137C54.6526 324.046 54.5725 324.968 54.3103 325.846C54.0481 326.724 53.6093 327.539 53.0208 328.241C52.4323 328.943 51.7065 329.518 50.888 329.929C50.0696 330.341 49.1756 330.58 48.2611 330.634C47.7139 330.676 47.1635 330.641 46.6263 330.529C46.2483 330.441 46.0549 330.362 46.0549 330.326C46.7778 330.375 47.5031 330.375 48.226 330.326C49.9553 330.142 51.5459 329.294 52.6637 327.962C53.7814 326.629 54.3394 324.916 54.2205 323.181C54.1444 322.453 54.0241 321.731 53.8601 321.018Z" fill="#263238"/>
<path d="M50.6079 285.631C48.7935 284.894 46.8905 284.398 44.9474 284.155C42.9908 284.063 41.0308 284.234 39.1199 284.665C39.6178 284.348 40.1734 284.133 40.7547 284.032C42.1369 283.694 43.5645 283.581 44.9825 283.698C46.4011 283.817 47.7906 284.167 49.0961 284.735C49.6514 284.937 50.1641 285.241 50.6079 285.631Z" fill="#263238"/>
<path d="M147.39 247.704L147.17 247.634L146.529 247.388L144.076 246.412L142.318 245.692C141.668 245.437 140.947 245.208 140.183 244.944C138.636 244.435 136.913 243.758 134.909 243.257L131.815 242.378C130.742 242.088 129.6 241.877 128.422 241.613C126.093 241.033 123.544 240.681 120.881 240.242C115.054 239.478 109.175 239.184 103.301 239.363C97.4425 239.617 91.6137 240.343 85.8717 241.534C83.2348 242.158 80.7297 242.703 78.4445 243.45C77.3018 243.802 76.168 244.092 75.122 244.47L72.0984 245.56C70.1559 246.201 68.4859 247.001 66.9828 247.625C66.2357 247.95 65.5326 248.232 64.9085 248.504L63.2033 249.383L60.8301 250.543L60.2149 250.833C60.1475 250.876 60.0731 250.905 59.9951 250.921C59.9951 250.921 60.0566 250.921 60.1885 250.798L60.7862 250.464L63.1242 249.225L64.8118 248.346C65.4359 248.038 66.139 247.739 66.8774 247.405C68.3716 246.764 70.0416 245.938 71.9841 245.27L75.0077 244.153C76.0625 243.767 77.1875 243.468 78.339 243.099C80.6331 242.334 83.1469 241.78 85.7838 241.139C91.5464 239.92 97.3994 239.176 103.284 238.915C109.159 238.75 115.039 239.064 120.863 239.855C123.544 240.303 126.093 240.673 128.44 241.262C129.609 241.543 130.76 241.763 131.832 242.07L134.926 242.949C136.913 243.468 138.636 244.171 140.2 244.707C140.965 244.98 141.686 245.226 142.336 245.481L144.094 246.245L146.511 247.309L147.135 247.599C147.328 247.66 147.399 247.696 147.39 247.704Z" fill="white"/>
<path d="M157.841 253.532C156.884 253.381 155.956 253.085 155.09 252.653C154.164 252.353 153.291 251.908 152.506 251.334C153.465 251.486 154.395 251.782 155.266 252.213C156.187 252.516 157.056 252.961 157.841 253.532Z" fill="white"/>
<path d="M11.7404 306.34C11.7404 306.419 10.9405 306.753 9.72758 307.517C6.56044 309.533 4.20703 312.602 3.08265 316.184C2.66075 317.555 2.55527 318.443 2.46738 318.434C2.43112 318.225 2.43112 318.011 2.46738 317.801C2.51675 317.222 2.61973 316.648 2.77501 316.087C3.25495 314.236 4.10116 312.5 5.26362 310.981C6.42609 309.462 7.88121 308.192 9.543 307.245C10.0402 306.953 10.564 306.708 11.1075 306.515C11.3065 306.42 11.5207 306.361 11.7404 306.34Z" fill="white"/>
<path d="M65.7348 393.691C65.7348 393.691 65.5766 393.48 65.2074 393.198C64.6551 392.811 63.9777 392.645 63.3089 392.733C62.7958 392.786 62.3023 392.959 61.8675 393.237C61.4327 393.514 61.0685 393.889 60.8039 394.332C60.1467 395.523 59.8418 396.877 59.9249 398.235H59.5206C59.5915 397.543 59.5128 396.845 59.2899 396.187C59.0669 395.529 58.705 394.926 58.2285 394.42C57.6973 393.872 57.0141 393.495 56.2668 393.338C55.5196 393.182 54.7426 393.252 54.0359 393.541C53.583 393.734 53.1852 394.037 52.8784 394.422C52.5715 394.807 52.3652 395.263 52.278 395.747C52.17 396.199 52.172 396.671 52.2836 397.122C52.3952 397.573 52.6133 397.991 52.9196 398.34L52.5592 398.56C52.0923 396.881 51.2406 395.334 50.0718 394.042C49.6105 393.556 49.0323 393.195 48.3922 392.995C47.7522 392.795 47.0716 392.762 46.4153 392.9C45.9922 393.019 45.6013 393.232 45.2712 393.523C44.9412 393.813 44.6804 394.174 44.508 394.578C44.4034 394.882 44.3384 395.198 44.3146 395.519C44.2284 395.193 44.25 394.847 44.3761 394.534C44.5329 394.088 44.7918 393.685 45.1321 393.357C45.4725 393.029 45.8848 392.785 46.3362 392.645C47.0418 392.47 47.7806 392.482 48.4802 392.679C49.1798 392.877 49.8161 393.252 50.3267 393.77C51.563 395.084 52.467 396.676 52.9635 398.411L53.3239 399.395L52.612 398.622C52.2544 398.223 51.9982 397.744 51.8651 397.225C51.732 396.707 51.7258 396.163 51.8473 395.642C51.9514 395.082 52.1931 394.557 52.5506 394.113C52.908 393.67 53.3701 393.322 53.8952 393.102C54.6878 392.778 55.5592 392.698 56.3972 392.874C57.2353 393.049 58.0016 393.471 58.5977 394.086C59.1118 394.642 59.5003 395.301 59.7369 396.02C59.9735 396.739 60.0526 397.5 59.9688 398.252H59.5645C59.4905 396.825 59.8357 395.407 60.5577 394.174C60.8802 393.661 61.324 393.236 61.8498 392.935C62.3048 392.694 62.8046 392.551 63.3177 392.513C64.0365 392.446 64.7527 392.664 65.3129 393.119C65.4982 393.272 65.6431 393.468 65.7348 393.691Z" fill="#263238"/>
<path d="M188.209 392.003L186.697 398.367C186.697 398.367 176.281 411.894 173.073 411.226C170.964 410.795 173.556 407.27 177.468 396.995L178.347 392.759L188.209 392.003Z" fill="#455A64"/>
<path d="M172.651 409.257C172.777 409.488 172.97 409.675 173.205 409.793C173.531 409.934 173.89 409.983 174.242 409.933C174.594 409.883 174.926 409.738 175.2 409.512C177.022 407.982 178.751 406.344 180.377 404.607C182.302 402.586 183.893 400.634 185.062 399.202L186.389 397.488C186.521 397.321 186.644 397.171 186.75 397.022C186.791 396.965 186.838 396.912 186.89 396.864C186.849 396.921 186.802 396.974 186.75 397.022L186.416 397.514C186.126 397.936 185.686 398.534 185.132 399.272C183.679 401.171 182.124 402.99 180.474 404.722C178.833 406.475 177.071 408.111 175.2 409.617C174.852 409.862 174.446 410.011 174.022 410.048C173.702 410.066 173.383 409.996 173.1 409.846C172.919 409.754 172.767 409.614 172.66 409.442C172.647 409.381 172.644 409.319 172.651 409.257Z" fill="#263238"/>
<path d="M174.119 404.862C174.398 404.751 174.702 404.717 174.998 404.765C175.696 404.834 176.367 405.066 176.958 405.442C177.572 405.794 178.067 406.32 178.382 406.954C178.524 407.21 178.602 407.496 178.611 407.789C178.611 407.789 178.514 407.473 178.268 407.016C177.932 406.431 177.446 405.945 176.861 405.609C176.291 405.243 175.65 405.001 174.981 404.897C174.694 404.871 174.407 404.859 174.119 404.862Z" fill="#263238"/>
<path d="M183.981 401.715C183.919 401.622 183.875 401.517 183.849 401.408C183.763 401.12 183.695 400.826 183.647 400.529C183.5 399.535 183.669 398.521 184.13 397.628C184.587 396.732 185.329 396.015 186.24 395.589C186.518 395.457 186.814 395.368 187.119 395.325C187.227 395.308 187.336 395.308 187.444 395.325C187.055 395.428 186.676 395.563 186.31 395.73C185.45 396.175 184.752 396.879 184.315 397.743C183.874 398.604 183.694 399.575 183.796 400.538C183.867 401.258 184.007 401.707 183.981 401.715Z" fill="#263238"/>
<path d="M187.55 393.084C187.55 393.084 187.356 393.963 187.163 395.114C187.082 395.806 186.899 396.481 186.618 397.119C186.618 397.119 186.785 396.24 186.978 395.079C187.062 394.388 187.255 393.715 187.55 393.084Z" fill="#263238"/>
<path d="M177.327 397.892C177.764 397.771 178.226 397.771 178.663 397.892C179.112 397.962 179.53 398.16 179.868 398.463C179.868 398.516 179.323 398.235 178.619 398.077C177.916 397.918 177.336 397.954 177.327 397.892Z" fill="#263238"/>
<path d="M177.116 398.982C177.48 398.853 177.878 398.853 178.242 398.982C178.625 399.038 178.975 399.231 179.226 399.527C179.226 399.571 178.778 399.298 178.198 399.167C177.617 399.035 177.125 399.043 177.116 398.982Z" fill="#263238"/>
<path d="M176.281 400.353C176.454 400.247 176.648 400.178 176.85 400.153C177.051 400.127 177.256 400.144 177.45 400.204C177.651 400.233 177.843 400.305 178.013 400.416C178.183 400.527 178.327 400.673 178.435 400.845C178.112 400.651 177.767 400.497 177.406 400.388C177.034 400.33 176.656 400.319 176.281 400.353Z" fill="#263238"/>
<path d="M178.048 397.435C178.048 397.435 178.523 397.312 179.27 397.022C179.702 396.849 180.122 396.647 180.527 396.415C180.746 396.284 180.984 396.134 181.212 395.976C181.441 395.818 181.661 395.589 181.652 395.343C181.643 395.097 181.335 394.956 181.098 395.018C180.85 395.103 180.629 395.252 180.456 395.449C180.07 395.809 179.744 396.152 179.481 396.451C178.945 397.048 178.655 397.444 178.602 397.426C178.647 397.319 178.706 397.218 178.778 397.127C178.901 396.943 179.094 396.679 179.349 396.363C179.65 396.001 179.97 395.654 180.307 395.325C180.499 395.102 180.748 394.935 181.028 394.842C181.112 394.816 181.2 394.808 181.287 394.819C181.375 394.83 181.458 394.86 181.533 394.907C181.607 394.954 181.67 395.017 181.718 395.09C181.766 395.164 181.798 395.247 181.81 395.334C181.793 395.497 181.738 395.653 181.649 395.79C181.561 395.928 181.441 396.042 181.3 396.125C181.069 396.286 180.828 396.433 180.579 396.565C180.167 396.796 179.735 396.991 179.287 397.145C178.986 397.251 178.678 397.336 178.365 397.4C178.171 397.444 178.048 397.453 178.048 397.435Z" fill="#263238"/>
<path d="M178.593 397.303C178.509 396.92 178.444 396.533 178.4 396.143C178.333 395.728 178.215 395.324 178.048 394.939C177.948 394.717 177.818 394.51 177.661 394.323C177.503 394.148 177.257 393.989 177.064 394.104C176.87 394.218 176.844 394.508 176.87 394.745C176.909 394.984 176.977 395.217 177.072 395.44C177.245 395.82 177.473 396.172 177.749 396.486C178.233 397.022 178.628 397.277 178.628 397.303C178.628 397.329 178.523 397.303 178.356 397.145C178.116 396.978 177.893 396.79 177.688 396.582C177.385 396.267 177.135 395.905 176.949 395.51C176.843 395.271 176.766 395.02 176.721 394.763C176.684 394.613 176.692 394.456 176.744 394.311C176.795 394.166 176.888 394.039 177.011 393.945C177.156 393.889 177.316 393.883 177.464 393.93C177.613 393.976 177.741 394.071 177.828 394.2C177.998 394.402 178.137 394.627 178.241 394.868C178.408 395.27 178.517 395.693 178.567 396.125C178.611 396.486 178.628 396.785 178.637 397.004C178.636 397.105 178.621 397.206 178.593 397.303Z" fill="#263238"/>
<path d="M238.072 394.956L238.116 386.466L222.251 386.272L222.031 398.709L223.016 398.789C227.41 399.087 245.332 399.984 248.277 399.131C251.564 398.165 238.072 394.956 238.072 394.956Z" fill="#455A64"/>
<path d="M221.811 398.331H222.084L222.875 398.393L225.758 398.551C228.201 398.674 231.577 398.789 235.303 398.841C239.03 398.894 242.405 398.841 244.849 398.841L247.741 398.762H244.849C242.414 398.762 239.039 398.762 235.312 398.762C231.585 398.762 228.219 398.613 225.775 398.534L222.884 398.428H222.101L221.811 398.331Z" fill="#263238"/>
<path d="M243.232 399.035C243.368 398.559 243.553 398.1 243.785 397.664C244.078 397.265 244.414 396.899 244.787 396.574C244.291 396.744 243.877 397.096 243.627 397.558C243.317 397.984 243.176 398.51 243.232 399.035Z" fill="#263238"/>
<path d="M238.573 396.6C238.617 396.6 238.846 396.354 239.074 395.993C239.303 395.633 239.47 395.317 239.426 395.282C239.382 395.246 239.153 395.528 238.916 395.888C238.679 396.248 238.52 396.565 238.573 396.6Z" fill="#263238"/>
<path d="M237.29 395.897C237.29 395.941 237.58 395.774 237.852 395.536C238.125 395.299 238.327 395.062 238.292 395.018C238.257 394.974 238.002 395.15 237.729 395.387C237.457 395.624 237.255 395.862 237.29 395.897Z" fill="#263238"/>
<path d="M236.499 394.385C236.762 394.487 237.044 394.529 237.325 394.508C237.62 394.549 237.921 394.522 238.204 394.429C237.924 394.321 237.623 394.282 237.325 394.315C237.048 394.278 236.766 394.302 236.499 394.385Z" fill="#263238"/>
<path d="M236.226 393.33C236.502 393.508 236.821 393.606 237.149 393.611C237.474 393.671 237.808 393.628 238.107 393.488C237.805 393.445 237.499 393.427 237.193 393.436C236.875 393.369 236.551 393.334 236.226 393.33Z" fill="#263238"/>
<path d="M239.127 395.194C239.465 395.25 239.809 395.25 240.147 395.194C240.517 395.159 240.882 395.085 241.236 394.974C241.454 394.914 241.663 394.828 241.861 394.719C241.985 394.654 242.079 394.544 242.124 394.411C242.142 394.335 242.137 394.256 242.11 394.183C242.084 394.109 242.037 394.045 241.975 393.998C241.586 393.802 241.142 393.746 240.717 393.841C240.293 393.935 239.914 394.174 239.646 394.517C239.485 394.716 239.368 394.946 239.303 395.194C239.28 395.283 239.28 395.377 239.303 395.466C239.408 395.147 239.569 394.85 239.777 394.587C240.011 394.322 240.316 394.13 240.656 394.033C240.856 393.966 241.067 393.94 241.277 393.956C241.487 393.973 241.692 394.032 241.878 394.13C242.036 394.253 241.975 394.438 241.79 394.543C241.607 394.645 241.412 394.725 241.21 394.78C240.866 394.896 240.513 394.984 240.155 395.044C239.514 395.194 239.127 395.194 239.127 395.194Z" fill="#263238"/>
<path d="M239.391 395.273C239.519 395.059 239.563 394.805 239.514 394.561C239.488 394.294 239.398 394.037 239.25 393.814C239.163 393.655 239.036 393.523 238.882 393.429C238.727 393.335 238.551 393.283 238.371 393.277C238.267 393.301 238.175 393.363 238.115 393.451C238.055 393.539 238.03 393.647 238.046 393.752C238.069 393.914 238.126 394.07 238.213 394.209C238.344 394.436 238.504 394.646 238.687 394.833C238.845 395.018 239.043 395.162 239.267 395.255C239.267 395.255 239.065 395.071 238.793 394.737C238.629 394.548 238.488 394.342 238.371 394.121C238.23 393.902 238.142 393.515 238.371 393.471C238.599 393.427 238.89 393.708 239.039 393.91C239.18 394.11 239.275 394.338 239.32 394.578C239.362 394.807 239.386 395.04 239.391 395.273Z" fill="#263238"/>
<path d="M222.198 393.981C222.198 393.981 222.646 393.981 223.367 394.033C224.303 394.148 225.188 394.526 225.917 395.124C226.647 395.721 227.192 396.514 227.49 397.409C227.727 398.094 227.744 398.551 227.78 398.551C227.797 398.444 227.797 398.334 227.78 398.226C227.762 397.928 227.709 397.633 227.621 397.347C227.349 396.409 226.798 395.575 226.041 394.957C225.285 394.339 224.359 393.964 223.385 393.884C223.093 393.856 222.798 393.856 222.506 393.884C222.398 393.897 222.294 393.93 222.198 393.981Z" fill="#263238"/>
<path d="M223.93 387.388C223.801 388.471 223.74 389.56 223.745 390.649C223.681 391.738 223.681 392.83 223.745 393.919C223.868 392.834 223.926 391.742 223.921 390.649C223.985 389.563 223.988 388.475 223.93 387.388Z" fill="#263238"/>
<path d="M229.819 397.119C230.579 397.299 231.358 397.385 232.139 397.373C232.919 397.427 233.703 397.374 234.468 397.215C234.468 397.162 233.422 397.215 232.148 397.215C230.873 397.215 229.827 397.057 229.819 397.119Z" fill="#263238"/>
<path d="M226.707 397.075C226.663 397.075 226.786 397.294 226.892 397.532C226.997 397.769 227.05 397.98 227.103 397.98C227.155 397.98 227.191 397.734 227.103 397.453C227.015 397.171 226.742 397.031 226.707 397.075Z" fill="#263238"/>
<path d="M225.547 395.598C225.547 395.598 225.608 395.8 225.775 395.967C225.942 396.134 226.101 396.24 226.136 396.204C226.171 396.169 226.074 396.002 225.916 395.835C225.758 395.668 225.591 395.554 225.547 395.598Z" fill="#263238"/>
<path d="M223.877 394.904C223.877 394.956 224.097 394.956 224.334 395.044C224.571 395.132 224.729 395.255 224.773 395.22C224.817 395.185 224.686 394.965 224.395 394.86C224.105 394.754 223.859 394.86 223.877 394.904Z" fill="#263238"/>
<path d="M222.682 394.578C222.682 394.622 222.752 394.71 222.884 394.763C223.016 394.816 223.139 394.816 223.156 394.763C223.174 394.71 223.086 394.631 222.963 394.578C222.84 394.526 222.708 394.526 222.682 394.578Z" fill="#263238"/>
<path d="M248.822 232.375L242.722 391.739L217.953 392.258L222.066 254.182L194.221 393.313H170.674L201.006 232.701L248.822 232.375Z" fill="#263238"/>
<path d="M227.771 238.176C227.752 239.062 227.658 239.944 227.489 240.813C227.261 242.422 226.909 244.654 226.496 247.098C226.337 248.266 226.103 249.423 225.793 250.561C225.512 251.517 224.948 252.366 224.176 252.996C223.656 253.416 223.034 253.692 222.374 253.796C222.137 253.856 221.889 253.856 221.653 253.796C222.506 253.671 223.308 253.315 223.974 252.767C224.665 252.148 225.163 251.342 225.406 250.447C225.69 249.323 225.91 248.185 226.065 247.036C226.479 244.584 226.874 242.369 227.182 240.769C227.309 239.891 227.506 239.024 227.771 238.176Z" fill="#455A64"/>
<path d="M222.62 238.941C222.673 238.941 222.471 239.24 222.62 239.653C222.65 239.765 222.702 239.87 222.773 239.963C222.844 240.055 222.932 240.132 223.033 240.189C223.16 240.234 223.296 240.244 223.428 240.218C223.56 240.191 223.683 240.13 223.782 240.04C223.882 239.95 223.956 239.835 223.996 239.706C224.036 239.578 224.04 239.441 224.009 239.31C223.968 239.202 223.904 239.104 223.822 239.022C223.741 238.94 223.642 238.877 223.534 238.836C223.13 238.66 222.849 238.836 222.822 238.774C222.796 238.713 223.051 238.414 223.631 238.537C223.797 238.577 223.951 238.656 224.082 238.765C224.213 238.875 224.318 239.013 224.387 239.17C224.46 239.378 224.467 239.603 224.407 239.816C224.347 240.028 224.224 240.217 224.053 240.356C223.893 240.507 223.691 240.605 223.474 240.636C223.257 240.668 223.035 240.631 222.84 240.532C222.693 240.443 222.569 240.321 222.478 240.177C222.386 240.032 222.33 239.868 222.312 239.697C222.251 239.117 222.602 238.888 222.62 238.941Z" fill="#455A64"/>
<path d="M209.321 241.218C209.031 240.503 208.923 239.727 209.005 238.96C209.088 238.194 209.36 237.459 209.796 236.823C209.91 236.876 209.55 237.816 209.436 239.02C209.321 240.224 209.445 241.182 209.321 241.218Z" fill="#455A64"/>
<path d="M212.301 241.024C211.938 240.302 211.812 239.484 211.941 238.686C211.929 237.875 212.169 237.08 212.626 236.41C212.741 236.41 212.459 237.456 212.38 238.713C212.394 239.484 212.368 240.256 212.301 241.024Z" fill="#455A64"/>
<path d="M237.896 241.675C237.873 240.875 237.92 240.075 238.037 239.284C238.007 238.482 238.042 237.68 238.142 236.884C238.473 237.644 238.585 238.481 238.468 239.301C238.497 240.13 238.3 240.95 237.896 241.675Z" fill="#455A64"/>
<path d="M241.131 241.499C241.008 241.446 241.395 240.4 241.482 239.064C241.57 237.728 241.342 236.647 241.482 236.612C241.835 237.391 241.989 238.245 241.931 239.097C241.873 239.95 241.604 240.775 241.148 241.499H241.131Z" fill="#455A64"/>
<path d="M214.34 166.075L229.634 164.854C229.731 163.096 229.634 156.17 229.634 156.17C229.634 156.17 235.998 155.176 236.077 148.821C236.156 142.467 235.049 127.858 235.049 127.858C231.427 126.289 227.451 125.719 223.535 126.206C219.618 126.693 215.903 128.219 212.776 130.627L211.835 131.357L214.34 166.075Z" fill="#FFBE9D"/>
<path d="M229.581 156.117C226.645 156.176 223.759 155.356 221.293 153.761C221.293 153.761 223.253 158.341 229.599 157.769L229.581 156.117Z" fill="#EB996E"/>
<path d="M212.582 137.958C212.477 137.914 208.188 136.665 208.355 141.016C208.522 145.367 212.829 144.33 212.837 144.207C212.846 144.084 212.582 137.958 212.582 137.958Z" fill="#FFBE9D"/>
<path d="M211.484 142.598C211.484 142.598 211.413 142.651 211.29 142.713C211.107 142.787 210.902 142.787 210.719 142.713C210.44 142.539 210.212 142.294 210.058 142.004C209.904 141.714 209.829 141.389 209.84 141.06C209.815 140.685 209.875 140.31 210.016 139.962C210.052 139.826 210.121 139.7 210.215 139.596C210.31 139.492 210.429 139.413 210.561 139.364C210.648 139.339 210.74 139.345 210.823 139.38C210.907 139.415 210.975 139.478 211.018 139.557C211.079 139.68 211.018 139.768 211.079 139.777C211.141 139.786 211.167 139.698 211.132 139.522C211.102 139.414 211.037 139.318 210.948 139.25C210.824 139.167 210.673 139.132 210.526 139.153C210.348 139.194 210.185 139.281 210.051 139.404C209.917 139.527 209.817 139.683 209.761 139.856C209.584 140.238 209.505 140.658 209.532 141.078C209.523 141.466 209.629 141.847 209.837 142.175C210.045 142.502 210.346 142.759 210.701 142.915C210.818 142.945 210.941 142.95 211.059 142.927C211.178 142.904 211.29 142.855 211.387 142.783C211.484 142.704 211.501 142.607 211.484 142.598Z" fill="#EB996E"/>
<path d="M237.422 122.365C236.958 121.449 236.291 120.651 235.472 120.033C234.653 119.414 233.702 118.992 232.694 118.797C231.686 118.603 230.647 118.642 229.657 118.912C228.666 119.181 227.75 119.674 226.98 120.352C226.497 119.389 225.785 118.56 224.907 117.936C224.029 117.312 223.011 116.913 221.943 116.775C220.875 116.636 219.789 116.761 218.781 117.14C217.773 117.518 216.873 118.138 216.16 118.946C214.938 120.334 214.305 122.207 212.881 123.34C211.642 124.351 209.972 124.685 208.724 125.678C208.035 126.231 207.511 126.963 207.212 127.793C206.912 128.624 206.847 129.521 207.024 130.386C207.201 131.251 207.614 132.051 208.216 132.696C208.818 133.342 209.587 133.809 210.438 134.046C210.125 134.672 209.943 135.354 209.902 136.052C209.861 136.75 209.962 137.449 210.2 138.107C210.437 138.764 210.806 139.367 211.284 139.878C211.761 140.388 212.338 140.797 212.978 141.078L213.611 140.814C214.795 139.467 215.552 137.8 215.787 136.022C216.021 134.244 215.723 132.437 214.929 130.829C215.005 130.834 215.082 130.834 215.158 130.829C216.251 131.439 217.532 131.622 218.753 131.343C219.974 131.064 221.048 130.342 221.768 129.317C222.649 129.934 223.688 130.286 224.763 130.331C225.837 130.377 226.903 130.113 227.832 129.572C228.093 129.374 228.392 129.233 228.711 129.159C229.114 129.166 229.506 129.284 229.845 129.502C230.788 130.012 231.863 130.226 232.93 130.117C233.422 130.057 233.89 129.874 234.293 129.585C234.695 129.297 235.019 128.911 235.233 128.465H235.312C235.92 128.326 236.478 128.023 236.926 127.589C237.374 127.155 237.694 126.607 237.852 126.004C238.169 124.78 238.015 123.481 237.422 122.365Z" fill="#263238"/>
<path d="M247.073 198.694L247.635 170.04C242.546 165.038 239.83 163.544 232.746 162.709L230.821 162.489L230.214 157.769L212.846 156.785L213.725 162.393C211.211 162.498 209.119 163.272 206.983 163.685C200.233 164.977 195.372 169.89 194.027 174.434C192.911 178.17 185.783 205.866 185.783 205.866L184.333 214.225L200.277 208.441V214.462V236.577H248.62C248.787 231.303 247.073 198.694 247.073 198.694Z" fill="#7C3AED"/>
<g opacity="0.2">
<path d="M247.073 198.694L247.635 170.04C242.546 165.038 239.83 163.544 232.746 162.709L230.821 162.489L230.214 157.769L212.846 156.785L213.725 162.393C211.211 162.498 209.119 163.272 206.983 163.685C200.233 164.977 195.372 169.89 194.027 174.434C192.911 178.17 185.783 205.866 185.783 205.866L184.333 214.225L200.277 208.441V214.462V236.577H248.62C248.787 231.303 247.073 198.694 247.073 198.694Z" fill="black"/>
</g>
<path d="M191.593 206.261L215.439 202.877L219.974 210.999L197.807 220.993C196.571 221.559 195.229 221.859 193.869 221.872C191.966 221.867 190.107 221.295 188.531 220.229C186.954 219.163 185.731 217.651 185.018 215.886L184.297 214.128L191.593 206.261Z" fill="#7C3AED"/>
<g opacity="0.2">
<path d="M191.593 206.261L215.439 202.877L219.974 210.999L197.807 220.993C196.571 221.559 195.229 221.859 193.869 221.872C191.966 221.867 190.107 221.295 188.531 220.229C186.954 219.163 185.731 217.651 185.018 215.886L184.297 214.128L191.593 206.261Z" fill="black"/>
</g>
<path d="M240.322 164.458C240.322 164.458 247.064 166.752 249.894 173.248C251.74 177.484 254.456 197.859 254.456 197.859L257.875 204.46C258.697 206.042 259.126 207.8 259.123 209.584V210.595C259.126 213.156 258.244 215.64 256.627 217.626C255.689 218.78 254.528 219.734 253.215 220.432C251.901 221.129 250.461 221.556 248.98 221.687C245.561 221.995 241.43 222.127 240.551 221.125C238.995 219.367 236.657 214.559 236.657 214.559L246.616 209.285L242.326 201.374L240.322 164.458Z" fill="#7C3AED"/>
<g opacity="0.2">
<path d="M240.322 164.458C240.322 164.458 247.064 166.752 249.894 173.248C251.74 177.484 254.456 197.859 254.456 197.859L257.875 204.46C258.697 206.042 259.126 207.8 259.123 209.584V210.595C259.126 213.156 258.244 215.64 256.627 217.626C255.689 218.78 254.528 219.734 253.215 220.432C251.901 221.129 250.461 221.556 248.98 221.687C245.561 221.995 241.43 222.127 240.551 221.125C238.995 219.367 236.657 214.559 236.657 214.559L246.616 209.285L242.326 201.374L240.322 164.458Z" fill="black"/>
</g>
<path d="M199.468 220.281C199.468 220.281 199.591 220.193 199.855 220.061L200.998 219.507L205.278 217.503L219.886 210.832L219.79 211.14L216.995 206.13L215.237 203.018L215.448 203.124L197.974 204.837L192.788 205.303L191.382 205.409C191.219 205.434 191.053 205.434 190.89 205.409C191.048 205.365 191.21 205.336 191.373 205.321L192.771 205.145L197.948 204.547L215.421 202.702H215.562L215.632 202.825L217.39 205.936L220.177 210.946L220.291 211.148L220.08 211.245L205.41 217.776L201.077 219.657L199.899 220.149C199.76 220.206 199.616 220.25 199.468 220.281Z" fill="#263238"/>
<path d="M203.705 203.906C203.582 203.906 203.485 199.643 203.485 194.387C203.485 189.13 203.582 184.868 203.705 184.868C203.828 184.868 203.925 189.13 203.925 194.387C203.925 199.643 203.793 203.906 203.705 203.906Z" fill="#263238"/>
<path d="M244.752 210.278C244.752 210.278 245.007 210.199 245.473 210.164C246.146 210.101 246.824 210.14 247.486 210.278C247.97 210.382 248.409 210.634 248.743 210.999C249.091 211.436 249.319 211.958 249.402 212.511C249.51 213.121 249.456 213.748 249.244 214.33C249.003 214.953 248.584 215.491 248.04 215.877C246.985 216.521 245.809 216.94 244.585 217.108C243.609 217.297 242.617 217.394 241.623 217.398C240.704 217.476 239.781 217.316 238.942 216.932C239.829 217.068 240.727 217.121 241.623 217.09C242.593 217.044 243.557 216.918 244.506 216.712C245.667 216.536 246.781 216.133 247.785 215.526C248.243 215.198 248.601 214.749 248.817 214.228C249.033 213.708 249.098 213.137 249.006 212.581C248.943 212.092 248.759 211.627 248.47 211.228C248.188 210.911 247.818 210.684 247.407 210.577C246.774 210.419 246.125 210.336 245.473 210.331C245.232 210.341 244.99 210.324 244.752 210.278Z" fill="#263238"/>
<path d="M248.708 221.801C248.138 221.974 247.543 222.042 246.95 222.004C245.545 222.048 244.144 221.818 242.827 221.327C242.1 221.052 241.411 220.682 240.779 220.228C240.267 219.843 239.836 219.359 239.514 218.804C239.185 218.317 238.974 217.761 238.898 217.178C238.969 217.178 239.197 217.776 239.777 218.637C240.116 219.131 240.538 219.563 241.026 219.912C241.64 220.322 242.301 220.658 242.994 220.914C244.265 221.387 245.604 221.651 246.958 221.696C247.543 221.689 248.128 221.725 248.708 221.801Z" fill="#263238"/>
<path d="M253.471 201.146C253.128 201.657 252.734 202.131 252.294 202.561C251.529 203.396 250.448 204.539 249.235 205.778C248.022 207.017 246.914 208.134 246.088 208.916C245.675 209.374 245.209 209.781 244.699 210.129C245.03 209.609 245.423 209.131 245.868 208.705C246.633 207.826 247.714 206.718 248.918 205.479C250.323 203.92 251.845 202.472 253.471 201.146Z" fill="#263238"/>
<path d="M242.607 196.698C242.387 194.894 242.314 193.074 242.388 191.258C242.314 189.438 242.387 187.616 242.607 185.808C242.827 187.616 242.901 189.438 242.827 191.258C242.901 193.074 242.828 194.894 242.607 196.698Z" fill="#263238"/>
<path d="M246.159 168.15C246.159 168.273 235.427 168.378 222.189 168.378C208.952 168.378 198.22 168.273 198.22 168.15C198.22 168.027 208.952 167.921 222.189 167.921C235.427 167.921 246.159 168.018 246.159 168.15Z" fill="#FAFAFA"/>
<path d="M230.346 162.656C227.594 162.869 224.833 162.931 222.075 162.841C219.318 162.904 216.559 162.81 213.813 162.56C216.562 162.352 219.32 162.294 222.075 162.384C224.835 162.326 227.596 162.417 230.346 162.656Z" fill="#263238"/>
<path d="M251.371 177.836C251.371 177.959 238.344 178.064 222.268 178.064C206.192 178.064 193.157 177.959 193.157 177.836C193.157 177.713 206.192 177.599 222.268 177.599C238.344 177.599 251.371 177.704 251.371 177.836Z" fill="#FAFAFA"/>
<path d="M253.173 187.759C253.173 187.891 239.109 187.988 221.715 187.988C204.32 187.988 190.257 187.891 190.257 187.759C190.257 187.628 204.32 187.531 221.715 187.531C239.109 187.531 253.173 187.663 253.173 187.759Z" fill="#FAFAFA"/>
<path d="M254.298 197.472C254.298 197.595 239.434 197.7 221.099 197.7C202.764 197.7 187.901 197.595 187.901 197.472C187.901 197.349 202.764 197.243 221.099 197.243C239.434 197.243 254.298 197.34 254.298 197.472Z" fill="#FAFAFA"/>
<path d="M258.789 213.249C258.789 213.372 242.273 213.478 221.873 213.478C201.472 213.478 184.957 213.372 184.957 213.249C184.957 213.126 201.472 213.021 221.873 213.021C242.273 213.021 258.789 213.109 258.789 213.249Z" fill="#FAFAFA"/>
<path d="M248.198 224.298C248.198 224.421 237.299 224.526 223.859 224.526C210.42 224.526 199.521 224.421 199.521 224.298C199.521 224.175 210.411 224.069 223.859 224.069C237.307 224.069 248.198 224.166 248.198 224.298Z" fill="#FAFAFA"/>
<path d="M236.93 198.975L236.411 198.588C235.084 197.592 233.563 196.884 231.947 196.51C230.33 196.136 228.653 196.105 227.024 196.417C224.341 196.931 221.829 198.11 219.719 199.845L215.632 203.211L219.974 210.999L222.936 206.859C222.936 206.859 225.696 210.603 226.189 210.208C226.626 209.741 226.991 209.211 227.27 208.635L225.301 205.875L230.03 206.859L236.93 203.704L233.967 199.959L236.93 200.944V198.975Z" fill="#FFBE9D"/>
<path d="M229.643 198.263L214.463 216.642L215.632 217.899L240.261 214.146L252.478 195.767L251.344 194.747L229.643 198.263Z" fill="#263238"/>
<path d="M245.745 203.115C245.272 203.113 244.81 203.255 244.419 203.522C244.028 203.789 243.727 204.168 243.557 204.609C243.291 205.527 242.773 206.352 242.063 206.991C240.964 207.589 239.074 208.063 238.081 207.58C237.088 207.096 233.106 203.51 232.412 203.906C231.717 204.301 231.119 205.198 231.814 205.998C232.508 206.798 236.209 209.18 235.497 209.979C234.785 210.779 227.032 207.272 225.828 207.58C224.624 207.888 223.938 208.617 224.633 209.1C225.327 209.584 230.601 211.57 230.9 212.265C230.9 212.265 222.936 210.173 222.638 210.674C222.339 211.175 221.846 211.966 222.638 212.265C223.429 212.564 230.302 214.357 230.9 214.655C231.887 215.061 232.916 215.355 233.967 215.534C235.053 215.816 236.124 216.154 237.176 216.545C238.785 217.109 240.546 217.062 242.124 216.413L242.933 216.088C243.544 215.838 244.062 215.402 244.414 214.843C244.765 214.283 244.933 213.628 244.893 212.968L244.735 210.261L245.613 208.019L245.745 203.115Z" fill="#FFBE9D"/>
<path d="M252.522 195.934C252.375 195.99 252.222 196.029 252.065 196.048L250.747 196.276L245.895 197.059L238.687 198.157L234.433 198.799C232.931 198.964 231.504 199.542 230.311 200.469C229.216 201.534 228.213 202.689 227.314 203.923C226.373 205.084 225.477 206.209 224.615 207.281L220.036 212.95L216.916 216.765L216.037 217.785C215.941 217.908 215.832 218.02 215.711 218.119C215.711 218.119 215.782 217.978 215.966 217.732L216.766 216.66L219.772 212.774L224.281 207.035L226.918 203.66C227.836 202.403 228.859 201.227 229.977 200.144C231.231 199.168 232.731 198.56 234.31 198.386L238.573 197.771L245.798 196.76L250.676 196.118L252.004 195.969C252.173 195.928 252.349 195.916 252.522 195.934Z" fill="#455A64"/>
<path d="M240.999 199.959C240.736 200.096 240.503 200.284 240.314 200.513C240.228 200.634 240.181 200.778 240.181 200.926C240.181 201.074 240.228 201.219 240.314 201.339C240.455 201.463 240.636 201.531 240.823 201.531C241.011 201.531 241.192 201.463 241.333 201.339C241.531 201.199 241.67 200.988 241.72 200.75C241.746 200.632 241.741 200.51 241.705 200.394C241.67 200.279 241.605 200.174 241.518 200.091C241.422 200.017 241.305 199.977 241.184 199.977C241.063 199.977 240.945 200.017 240.85 200.091" fill="#FAFAFA"/>
<path d="M169.1 158.631L164.635 150.72C167.397 146.235 168.381 140.88 167.394 135.707C166.407 130.533 163.521 125.916 159.303 122.763C155.084 119.609 149.839 118.148 144.598 118.666C139.357 119.184 134.499 121.644 130.979 125.562C127.46 129.48 125.533 134.573 125.578 139.839C125.623 145.106 127.637 150.165 131.223 154.022C134.809 157.88 139.708 160.256 144.957 160.684C150.207 161.112 155.426 159.562 159.59 156.337L169.1 158.631Z" fill="#7C3AED"/>
<path d="M139.391 137.184C139.391 135.286 140.534 134.081 142.16 134.081C143.786 134.081 144.911 135.268 144.911 137.184C144.911 139.1 143.777 140.296 142.16 140.296C140.543 140.296 139.391 139.091 139.391 137.184ZM143.32 137.184C143.32 135.98 142.854 135.426 142.16 135.426C141.466 135.426 141 136.024 141 137.184C141 138.344 141.474 138.942 142.16 138.942C142.846 138.942 143.32 138.397 143.32 137.184ZM148.787 134.204H150.677L143.083 145.481H141.193L148.787 134.204ZM146.959 142.502C146.959 140.603 148.102 139.39 149.71 139.39C151.319 139.39 152.47 140.603 152.47 142.502C152.47 144.4 151.328 145.613 149.71 145.613C148.093 145.613 146.959 144.4 146.959 142.502ZM150.871 142.502C150.871 141.306 150.405 140.744 149.71 140.744C149.016 140.744 148.55 141.324 148.55 142.502C148.55 143.68 149.025 144.26 149.71 144.26C150.396 144.26 150.871 143.697 150.871 142.502Z" fill="white"/>
</svg>
